<svg xmlns="http://www.w3.org/2000/svg" viewBox="0 0 1000 184" width="1000" height="184" role="img" aria-label="AI for Games in the Foundation Model Era"><defs><linearGradient id="panel" x1="0" y1="0" x2="1" y2="1"><stop stop-color="#111d2d"/><stop offset="1" stop-color="#0b1421"/></linearGradient><radialGradient id="glow" cx="0" cy="0" r="1" gradientTransform="translate(870 20) rotate(135) scale(350 210)" gradientUnits="userSpaceOnUse"><stop stop-color="#244c72" stop-opacity=".48"/><stop offset="1" stop-color="#0b1421" stop-opacity="0"/></radialGradient></defs><rect x="1" y="1" width="998" height="182" rx="18" fill="url(#panel)" stroke="#32455d"/><rect x="1" y="1" width="998" height="182" rx="18" fill="url(#glow)"/><path d="M48 30h46" stroke="#46d7d7" stroke-width="3" stroke-linecap="round"/><text x="106" y="35" fill="#91a4bb" font-family="Inter,Segoe UI,Arial,sans-serif" font-size="12" font-weight="700" letter-spacing="2">SIX ROLES · THREE QUESTIONS · EVIDENCE-CENTERED SYNTHESIS</text><text x="48" y="87" fill="#f5f8fc" font-family="Inter,Segoe UI,Arial,sans-serif" font-size="35" font-weight="750" letter-spacing="-.55">AI for Games in the Foundation Model Era</text><text x="48" y="115" fill="#9fb0c3" font-family="Inter,Segoe UI,Arial,sans-serif" font-size="15">A structured map of how foundation models play, model, design, build, adapt, and test games.</text><g><rect x="48" y="133" width="122" height="28" rx="14" fill="#162336" stroke="#72afe0" stroke-opacity=".72"/><circle cx="63" cy="147" r="4" fill="#72afe0"/><text x="75" y="151" fill="#dce6f2" font-family="Inter,Segoe UI,Arial,sans-serif" font-size="10" font-weight="700" letter-spacing=".55">PLAY &amp; ACT</text></g><g><rect x="182" y="133" width="174" height="28" rx="14" fill="#162336" stroke="#89c668" stroke-opacity=".72"/><circle cx="197" cy="147" r="4" fill="#89c668"/><text x="209" y="151" fill="#dce6f2" font-family="Inter,Segoe UI,Arial,sans-serif" font-size="10" font-weight="700" letter-spacing=".55">MODEL PLAYERS &amp; GAMES</text></g><g><rect x="368" y="133" width="112" height="28" rx="14" fill="#162336" stroke="#9692e5" stroke-opacity=".72"/><circle cx="383" cy="147" r="4" fill="#9692e5"/><text x="395" y="151" fill="#dce6f2" font-family="Inter,Segoe UI,Arial,sans-serif" font-size="10" font-weight="700" letter-spacing=".55">DESIGN</text></g><g><rect x="492" y="133" width="128" height="28" rx="14" fill="#162336" stroke="#e48748" stroke-opacity=".72"/><circle cx="507" cy="147" r="4" fill="#e48748"/><text x="519" y="151" fill="#dce6f2" font-family="Inter,Segoe UI,Arial,sans-serif" font-size="10" font-weight="700" letter-spacing=".55">BUILD</text></g><g><rect x="632" y="133" width="166" height="28" rx="14" fill="#162336" stroke="#46d7d7" stroke-opacity=".72"/><circle cx="647" cy="147" r="4" fill="#46d7d7"/><text x="659" y="151" fill="#dce6f2" font-family="Inter,Segoe UI,Arial,sans-serif" font-size="10" font-weight="700" letter-spacing=".55">RUNTIME</text></g><g><rect x="810" y="133" width="142" height="28" rx="14" fill="#162336" stroke="#d2ad39" stroke-opacity=".72"/><circle cx="825" cy="147" r="4" fill="#d2ad39"/><text x="837" y="151" fill="#dce6f2" font-family="Inter,Segoe UI,Arial,sans-serif" font-size="10" font-weight="700" letter-spacing=".55">TEST &amp; EVALUATE</text></g></svg>